<svg width="156" height="35" viewBox="0 0 156 35" fill="none" xmlns="http://www.w3.org/2000/svg">
<path d="M22.912 0.303999V6.88H9.184V13.984H19.456V20.368H9.184V34H0.976V0.303999H22.912ZM39.418 34.384C36.794 34.384 34.426 33.824 32.314 32.704C30.234 31.584 28.586 29.984 27.37 27.904C26.186 25.824 25.594 23.392 25.594 20.608C25.594 17.856 26.202 15.44 27.418 13.36C28.634 11.248 30.298 9.632 32.41 8.512C34.522 7.392 36.89 6.832 39.514 6.832C42.138 6.832 44.506 7.392 46.618 8.512C48.73 9.632 50.394 11.248 51.61 13.36C52.826 15.44 53.434 17.856 53.434 20.608C53.434 23.36 52.81 25.792 51.562 27.904C50.346 29.984 48.666 31.584 46.522 32.704C44.41 33.824 42.042 34.384 39.418 34.384ZM39.418 27.28C40.986 27.28 42.314 26.704 43.402 25.552C44.522 24.4 45.082 22.752 45.082 20.608C45.082 18.464 44.538 16.816 43.45 15.664C42.394 14.512 41.082 13.936 39.514 13.936C37.914 13.936 36.586 14.512 35.53 15.664C34.474 16.784 33.946 18.432 33.946 20.608C33.946 22.752 34.458 24.4 35.482 25.552C36.538 26.704 37.85 27.28 39.418 27.28ZM65.9965 11.68C66.9565 10.208 68.1565 9.056 69.5965 8.224C71.0365 7.36 72.6365 6.928 74.3965 6.928V15.616H72.1405C70.0925 15.616 68.5565 16.064 67.5325 16.96C66.5085 17.824 65.9965 19.36 65.9965 21.568V34H57.7885V7.216H65.9965V11.68ZM103.568 20.176C103.568 20.944 103.52 21.744 103.424 22.576H84.8478C84.9758 24.24 85.5038 25.52 86.4318 26.416C87.3918 27.28 88.5598 27.712 89.9358 27.712C91.9838 27.712 93.4078 26.848 94.2078 25.12H102.944C102.496 26.88 101.68 28.464 100.496 29.872C99.3438 31.28 97.8878 32.384 96.1278 33.184C94.3678 33.984 92.3998 34.384 90.2238 34.384C87.5998 34.384 85.2638 33.824 83.2158 32.704C81.1678 31.584 79.5678 29.984 78.4158 27.904C77.2638 25.824 76.6878 23.392 76.6878 20.608C76.6878 17.824 77.2478 15.392 78.3678 13.312C79.5198 11.232 81.1198 9.632 83.1678 8.512C85.2158 7.392 87.5678 6.832 90.2238 6.832C92.8158 6.832 95.1198 7.376 97.1358 8.464C99.1518 9.552 100.72 11.104 101.84 13.12C102.992 15.136 103.568 17.488 103.568 20.176ZM95.1678 18.016C95.1678 16.608 94.6878 15.488 93.7278 14.656C92.7678 13.824 91.5678 13.408 90.1278 13.408C88.7518 13.408 87.5838 13.808 86.6238 14.608C85.6958 15.408 85.1198 16.544 84.8958 18.016H95.1678ZM124.218 6.928C127.354 6.928 129.85 7.952 131.706 10C133.594 12.016 134.538 14.8 134.538 18.352V34H126.378V19.456C126.378 17.664 125.914 16.272 124.986 15.28C124.058 14.288 122.81 13.792 121.242 13.792C119.674 13.792 118.426 14.288 117.498 15.28C116.57 16.272 116.106 17.664 116.106 19.456V34H107.898V7.216H116.106V10.768C116.938 9.584 118.058 8.656 119.466 7.984C120.874 7.28 122.458 6.928 124.218 6.928ZM155.17 27.04V34H150.994C148.018 34 145.698 33.28 144.034 31.84C142.37 30.368 141.538 27.984 141.538 24.688V14.032H138.274V7.216H141.538V0.688H149.746V7.216H155.122V14.032H149.746V24.784C149.746 25.584 149.938 26.16 150.322 26.512C150.706 26.864 151.346 27.04 152.242 27.04H155.17Z" fill="white"/>
</svg>
