<svg width="105" height="105" viewBox="0 0 105 105" fill="none" xmlns="http://www.w3.org/2000/svg">
<path d="M0 52.5C0 23.5051 23.5051 0 52.5 0C81.4949 0 105 23.5051 105 52.5C105 81.4949 81.4949 105 52.5 105C23.5051 105 0 81.4949 0 52.5Z" fill="#FECB03"/>
<g clip-path="url(#clip0_2_8)">
<path d="M71.238 50.6233L50.712 30.3455C49.8399 29.484 48.6572 29 47.4239 29H27.65C25.0818 29 23 31.0567 23 33.5938V53.1285C23 54.3468 23.4899 55.5152 24.362 56.3767L44.888 76.6545C46.7039 78.4485 49.6481 78.4486 51.4641 76.6545L71.238 57.1198C73.054 55.3258 73.054 52.4172 71.238 50.6233ZM33.85 44.3125C31.2818 44.3125 29.2 42.2558 29.2 39.7188C29.2 37.1817 31.2818 35.125 33.85 35.125C36.4182 35.125 38.5 37.1817 38.5 39.7188C38.5 42.2558 36.4182 44.3125 33.85 44.3125ZM83.638 57.1198L63.8641 76.6545C62.0482 78.4485 59.104 78.4485 57.288 76.6545L57.2532 76.6201L74.1151 59.9621C75.7619 58.3352 76.6688 56.1722 76.6688 53.8715C76.6688 51.5708 75.7618 49.4078 74.1151 47.781L55.1041 29H59.8239C61.0572 29 62.2399 29.484 63.112 30.3455L83.638 50.6233C85.454 52.4172 85.454 55.3258 83.638 57.1198Z" fill="#262626"/>
</g>
<defs>
<clipPath id="clip0_2_8">
<rect width="62" height="49" fill="white" transform="translate(23 29)"/>
</clipPath>
</defs>
</svg>
