<svg width="105" height="105" viewBox="0 0 105 105" fill="none" xmlns="http://www.w3.org/2000/svg">
<path d="M0 52.5C0 23.5051 23.5051 0 52.5 0C81.4949 0 105 23.5051 105 52.5C105 81.4949 81.4949 105 52.5 105C23.5051 105 0 81.4949 0 52.5Z" fill="#FECB03"/>
<path d="M76.4071 32.0625H30.5929C28.053 32.0625 26 34.1201 26 36.6562V70.3438C26 72.8799 28.053 74.9375 30.5929 74.9375H76.4071C78.9471 74.9375 81 72.8799 81 70.3438V36.6562C81 34.1201 78.9471 32.0625 76.4071 32.0625ZM31.1658 36.6562H75.8342C76.1493 36.6562 76.4071 36.9146 76.4071 37.2305V41.25H30.5929V37.2305C30.5929 36.9146 30.8507 36.6562 31.1658 36.6562ZM75.8342 70.3438H31.1658C30.8507 70.3438 30.5929 70.0854 30.5929 69.7695V53.5H76.4071V69.7695C76.4071 70.0854 76.1493 70.3438 75.8342 70.3438ZM44.3333 60.7734V64.6016C44.3333 65.2332 43.8177 65.75 43.1875 65.75H36.3125C35.6823 65.75 35.1667 65.2332 35.1667 64.6016V60.7734C35.1667 60.1418 35.6823 59.625 36.3125 59.625H43.1875C43.8177 59.625 44.3333 60.1418 44.3333 60.7734ZM62.6667 60.7734V64.6016C62.6667 65.2332 62.151 65.75 61.5208 65.75H48.5347C47.9045 65.75 47.3889 65.2332 47.3889 64.6016V60.7734C47.3889 60.1418 47.9045 59.625 48.5347 59.625H61.5208C62.151 59.625 62.6667 60.1418 62.6667 60.7734Z" fill="#262626"/>
</svg>
