<svg width="105" height="105" viewBox="0 0 105 105" fill="none" xmlns="http://www.w3.org/2000/svg">
<path d="M0 52.5C0 23.5051 23.5051 0 52.5 0C81.4949 0 105 23.5051 105 52.5C105 81.4949 81.4949 105 52.5 105C23.5051 105 0 81.4949 0 52.5Z" fill="#FECB03"/>
<g clip-path="url(#clip0_1_8)">
<path d="M74.5944 56.6601L78.9441 37.5664C79.2582 36.1878 78.2079 34.875 76.7907 34.875H40.6493L39.8059 30.7616C39.5958 29.7363 38.6915 29 37.6424 29H28.2083C26.9887 29 26 29.9864 26 31.2031V32.6719C26 33.8886 26.9887 34.875 28.2083 34.875H34.6385L41.1023 66.4013C39.5559 67.2885 38.5139 68.952 38.5139 70.8594C38.5139 73.6985 40.8209 76 43.6667 76C46.5125 76 48.8194 73.6985 48.8194 70.8594C48.8194 69.4206 48.2262 68.1206 47.2714 67.1875H66.5618C65.6071 68.1206 65.0139 69.4206 65.0139 70.8594C65.0139 73.6985 67.3209 76 70.1667 76C73.0125 76 75.3194 73.6985 75.3194 70.8594C75.3194 68.8241 74.1336 67.0652 72.4137 66.2324L72.9214 64.0039C73.2354 62.6253 72.1851 61.3125 70.768 61.3125H46.0698L45.4676 58.375H72.441C73.4721 58.375 74.3659 57.6632 74.5944 56.6601Z" fill="#262626"/>
</g>
<defs>
<clipPath id="clip0_1_8">
<rect width="53" height="47" fill="white" transform="translate(26 29)"/>
</clipPath>
</defs>
</svg>
